<?xml version="1.0" encoding="utf-8"?>
<svg version="1.1" id="Layer_1" xmlns="http://www.w3.org/2000/svg" xmlns:xlink="http://www.w3.org/1999/xlink"
	viewBox="0 0 100 35.1" xml:space="preserve">

<path d="M72.8,12.7c0-0.1-0.1-0.2-0.2-0.3c-0.7-0.7-1.4-1.4-2.1-2.1c-0.9-0.9-1.8-1.7-2.7-2.6c-1.3-1.3-2.6-2.6-3.8-3.9
	c-1.2-1.2-2.4-2.4-3.6-3.6c-0.1-0.1-0.3-0.2-0.4-0.3c-0.1,0-0.1,0.1-0.1,0.1c-0.1,0-0.2,0-0.3,0c-0.9,0.2-1.9,0.5-2.8,0.8
	c-1.2,0.3-2.4,0.7-3.6,1c-1.7,0.5-3.5,0.9-5.3,1.4c-1.6,0.4-3.3,0.9-4.9,1.3c-0.2,0-0.3,0.1-0.4,0.2c0,0.1,0,0.1,0,0.2
	c-0.1,0.1-0.1,0.2-0.1,0.3c-0.3,0.9-0.5,1.9-0.8,2.8c-0.3,1.2-0.6,2.4-0.9,3.6c-0.5,1.7-1,3.5-1.4,5.2c-0.4,1.6-0.9,3.2-1.3,4.9
	c0,0.2,0,0.3,0,0.5c0.1,0,0.1,0,0.2,0.1c0,0.1,0.1,0.2,0.2,0.3c0.7,0.7,1.4,1.4,2.1,2.1c0.9,0.9,1.8,1.7,2.7,2.6
	c1.3,1.3,2.6,2.6,3.8,3.9c1.2,1.2,2.4,2.4,3.6,3.6c0.1,0.1,0.3,0.2,0.4,0.3c0.1,0,0.1-0.1,0.1-0.1c0.1,0,0.2,0,0.3,0
	c0.9-0.2,1.9-0.5,2.8-0.8c1.2-0.3,2.4-0.7,3.6-1c1.7-0.5,3.5-0.9,5.3-1.4c1.6-0.4,3.3-0.9,4.9-1.3c0.2,0,0.3-0.1,0.4-0.2
	c0-0.1,0-0.1,0-0.2c0.1-0.1,0.1-0.2,0.1-0.3c0.3-0.9,0.5-1.9,0.8-2.8c0.3-1.2,0.6-2.4,0.9-3.6c0.5-1.7,1-3.5,1.4-5.2
	c0.4-1.6,0.9-3.2,1.3-4.9c0-0.2,0-0.3,0-0.5C72.9,12.7,72.9,12.7,72.8,12.7z M69.6,10.5C69.6,10.6,69.6,10.5,69.6,10.5
	c0.1,0,0.1,0.1,0.1,0.1c0,0-0.1,0-0.1,0C69.6,10.6,69.6,10.6,69.6,10.5z M68.8,10.1C68.9,10.1,68.9,10.1,68.8,10.1
	C68.9,10.1,68.9,10.1,68.8,10.1C68.9,10.1,68.8,10.1,68.8,10.1C68.8,10.1,68.8,10.1,68.8,10.1z M67.7,9c0.1,0,0.2,0,0.3,0
	c0,0,0,0.1,0,0.1c-0.1,0-0.2,0-0.3,0C67.7,9.1,67.7,9.1,67.7,9z M64.5,5.3c0.1,0.1,0.1,0.1,0.2,0.2c0,0-0.1,0-0.1,0.1
	C64.5,5.5,64.5,5.4,64.5,5.3C64.4,5.3,64.5,5.3,64.5,5.3z M63.3,4.3C63.3,4.4,63.3,4.4,63.3,4.3c0,0.1,0,0.1,0,0.1c0,0,0,0,0,0
	C63.3,4.4,63.3,4.4,63.3,4.3z M63.1,4.1c0,0.1-0.1,0.1-0.1,0.1c0,0,0,0,0,0C63,4.2,63.1,4.1,63.1,4.1z M63,3.8C63,3.8,63,3.8,63,3.8
	c0,0.1-0.1,0.1-0.1,0.1c0,0,0,0,0-0.1C62.9,3.8,62.9,3.8,63,3.8z M56.6,1.9C56.6,1.9,56.6,1.9,56.6,1.9c0.1,0.1,0.1,0.1,0,0.1
	C56.6,2,56.5,2,56.6,1.9C56.5,1.9,56.5,1.9,56.6,1.9z M55.8,2.3C55.8,2.3,55.8,2.3,55.8,2.3C55.8,2.3,55.8,2.3,55.8,2.3
	C55.8,2.3,55.7,2.3,55.8,2.3C55.8,2.3,55.8,2.3,55.8,2.3z M54.5,2.5C54.5,2.5,54.5,2.6,54.5,2.5c0,0.1,0,0.2-0.1,0.3
	c0,0-0.1,0-0.1-0.1C54.3,2.7,54.4,2.6,54.5,2.5z M49.6,3.6c0,0,0,0.1,0,0.1c-0.1,0-0.2,0-0.3,0c0,0,0-0.1,0-0.1
	C49.5,3.7,49.6,3.6,49.6,3.6z M48,4.2c0,0,0,0.1,0.1,0.1c0,0,0,0,0,0C48.1,4.3,48,4.3,48,4.2C48,4.2,48,4.2,48,4.2z M47.8,4.4
	C47.7,4.4,47.7,4.4,47.8,4.4c0,0,0,0-0.1-0.1C47.7,4.4,47.7,4.4,47.8,4.4z M47.3,4.2C47.4,4.2,47.4,4.2,47.3,4.2
	c0.1,0.1,0,0.1,0,0.2c0,0,0,0-0.1,0C47.3,4.3,47.3,4.3,47.3,4.2z M42.6,8.8C42.6,8.8,42.6,8.9,42.6,8.8c0,0.1,0,0.1,0,0.1
	C42.5,8.9,42.5,8.9,42.6,8.8C42.5,8.8,42.5,8.8,42.6,8.8z M42.5,9.7C42.5,9.7,42.5,9.7,42.5,9.7C42.5,9.7,42.5,9.8,42.5,9.7
	C42.5,9.8,42.5,9.8,42.5,9.7C42.5,9.8,42.5,9.7,42.5,9.7z M42.1,11c0,0.1,0.1,0.2,0.1,0.3c0,0-0.1,0-0.1,0c0-0.1-0.1-0.2-0.1-0.3
	C42,11,42.1,11,42.1,11z M40.6,15.7c0,0,0.1,0,0.1,0c0,0.1-0.1,0.2-0.1,0.3c0,0-0.1,0-0.1,0C40.5,15.9,40.5,15.8,40.6,15.7z
	 M40.3,17.4c0,0,0.1,0,0.1,0c0,0,0,0,0,0C40.4,17.4,40.3,17.4,40.3,17.4C40.3,17.4,40.3,17.4,40.3,17.4z M40.3,17.7
	C40.3,17.8,40.3,17.8,40.3,17.7c0,0-0.1,0-0.2,0C40.2,17.8,40.3,17.7,40.3,17.7z M40,18c0,0,0.1,0.1,0.1,0.1c0,0,0,0,0,0
	C40,18.1,40,18,40,18C39.9,18,40,18,40,18z M41.6,24.5C41.6,24.5,41.5,24.5,41.6,24.5c-0.1,0-0.1-0.1-0.1-0.1c0,0,0.1,0,0.1,0
	C41.6,24.5,41.6,24.5,41.6,24.5z M42.3,25C42.3,25,42.3,25,42.3,25C42.2,25,42.2,24.9,42.3,25C42.3,25,42.3,25,42.3,25
	C42.3,25,42.3,25,42.3,25z M43.4,26.1c-0.1,0-0.2,0-0.3,0c0,0,0-0.1,0-0.1c0.1,0,0.2,0,0.3,0C43.4,26,43.4,26,43.4,26.1z M46.7,29.8
	c-0.1-0.1-0.1-0.1-0.2-0.2c0,0,0.1,0,0.1-0.1C46.6,29.6,46.7,29.7,46.7,29.8C46.7,29.8,46.7,29.8,46.7,29.8z M47.8,30.7
	C47.8,30.7,47.8,30.7,47.8,30.7c0-0.1,0-0.1,0-0.1c0,0,0,0,0,0C47.9,30.7,47.9,30.7,47.8,30.7z M48,31c0-0.1,0.1-0.1,0.1-0.1
	c0,0,0,0,0,0C48.1,30.9,48.1,31,48,31z M48.2,31.3C48.1,31.3,48.1,31.3,48.2,31.3c0-0.1,0.1-0.1,0.1-0.1c0,0,0,0,0,0.1
	C48.3,31.3,48.2,31.3,48.2,31.3z M54.6,33.2C54.6,33.2,54.5,33.2,54.6,33.2c-0.1-0.1-0.1-0.1,0-0.1C54.6,33.1,54.6,33.1,54.6,33.2
	C54.6,33.2,54.6,33.2,54.6,33.2z M55.3,32.8C55.3,32.8,55.3,32.8,55.3,32.8C55.3,32.8,55.4,32.8,55.3,32.8
	C55.4,32.7,55.4,32.8,55.3,32.8C55.4,32.8,55.4,32.8,55.3,32.8z M56.7,32.6C56.7,32.6,56.6,32.5,56.7,32.6c0-0.1,0-0.2,0.1-0.3
	c0,0,0.1,0,0.1,0.1C56.8,32.4,56.8,32.5,56.7,32.6z M61.5,31.5c0,0,0-0.1,0-0.1c0.1,0,0.2,0,0.3,0c0,0,0,0.1,0,0.1
	C61.7,31.4,61.6,31.4,61.5,31.5z M63.1,30.9c0,0,0-0.1-0.1-0.1c0,0,0,0,0,0C63.1,30.8,63.1,30.8,63.1,30.9
	C63.1,30.9,63.1,30.9,63.1,30.9z M63.4,30.7C63.4,30.7,63.4,30.7,63.4,30.7c0,0,0,0,0.1,0.1C63.4,30.7,63.4,30.7,63.4,30.7z
	 M63.8,30.9C63.8,30.9,63.8,30.9,63.8,30.9c-0.1-0.1,0-0.1,0-0.2c0,0,0,0,0.1,0C63.8,30.8,63.8,30.8,63.8,30.9z M68.6,26.3
	C68.6,26.3,68.5,26.2,68.6,26.3c0-0.1,0-0.1,0-0.1C68.6,26.2,68.7,26.2,68.6,26.3C68.6,26.3,68.6,26.3,68.6,26.3z M68.7,25.4
	C68.7,25.4,68.6,25.4,68.7,25.4C68.6,25.4,68.6,25.3,68.7,25.4C68.6,25.3,68.7,25.3,68.7,25.4C68.7,25.3,68.7,25.4,68.7,25.4z
	 M69,24.1c0-0.1-0.1-0.2-0.1-0.3c0,0,0.1,0,0.1,0c0,0.1,0.1,0.2,0.1,0.3C69.1,24.1,69.1,24.1,69,24.1z M70.1,16.9
	c-0.2,0.7-0.3,1.4-0.5,2.1c-0.3,1-0.6,2-0.9,2.9c-0.4,1.3-0.7,2.6-1,3.9c-0.3,1-0.6,2.1-0.8,3.1c-1.2,0.3-2.3,0.6-3.5,0.9
	c-0.7,0.2-1.4,0.4-2.1,0.6c-1,0.3-2,0.5-3,0.7c-1.3,0.3-2.6,0.7-3.9,1.1c-1,0.3-2.1,0.5-3.1,0.8c-0.8-0.8-1.7-1.7-2.5-2.5
	c-0.5-0.5-1.1-1-1.6-1.5c-0.7-0.7-1.4-1.5-2.1-2.2c-0.9-0.9-1.9-1.9-2.8-2.8c-0.8-0.8-1.5-1.5-2.3-2.3c0.3-1.2,0.6-2.3,0.9-3.5
	c0.2-0.7,0.3-1.4,0.5-2.1c0.3-1,0.6-2,0.9-2.9c0.4-1.3,0.7-2.6,1-3.9c0.3-1,0.6-2.1,0.8-3.1c1.2-0.3,2.3-0.6,3.5-0.9
	c0.7-0.2,1.4-0.4,2.1-0.6c1-0.3,2-0.5,3-0.7c1.3-0.3,2.6-0.7,3.9-1.1c1-0.3,2.1-0.5,3.1-0.8c0.8,0.8,1.7,1.7,2.5,2.5
	c0.5,0.5,1.1,1,1.6,1.5c0.7,0.7,1.4,1.5,2.1,2.2c0.9,0.9,1.9,1.9,2.8,2.8c0.8,0.8,1.5,1.5,2.3,2.3C70.8,14.6,70.4,15.7,70.1,16.9z
	 M70.6,19.4c0,0-0.1,0-0.1,0c0-0.1,0.1-0.2,0.1-0.3c0,0,0.1,0,0.1,0C70.6,19.2,70.6,19.3,70.6,19.4z M70.9,17.7c0,0-0.1,0-0.1,0
	c0,0,0,0,0,0C70.8,17.6,70.8,17.6,70.9,17.7C70.9,17.7,70.9,17.7,70.9,17.7z M70.9,17.3C70.9,17.3,70.9,17.3,70.9,17.3
	c0,0,0.1,0,0.2,0C70.9,17.3,70.9,17.3,70.9,17.3z M71.2,17.1c0,0-0.1-0.1-0.1-0.1c0,0,0,0,0,0C71.1,17,71.2,17,71.2,17.1
	C71.2,17.1,71.2,17.1,71.2,17.1z"/>
<path d="M45.3,16c-0.2,0.2-0.4,0.4-0.6,0.8c0,0.6-0.1,1.2,0.1,1.8c0.1,0,0.2,0,0.3-0.1c0.2-0.2,0.5-0.3,0.7-0.5
	c0.1-0.1,0.2-0.1,0.3-0.2c0.2-0.1,0.3-0.2,0.5-0.3c0.7-0.5,1.5-1,2.2-1.5c0.6-0.4,1.2-0.9,1.8-1.3c0.2-0.1,0.3-0.3,0.3-0.7
	c0-0.3,0-0.6,0-0.8c0-0.3,0-0.6-0.2-0.7c-0.1-0.1-0.2-0.2-0.3-0.2c-0.6-0.4-1.2-0.8-1.8-1.2c-0.3-0.2-0.5-0.4-0.8-0.6
	c-0.9-0.6-1.7-1.2-2.6-1.8c-0.1-0.1-0.3-0.2-0.5,0c-0.1,0.6,0,1.2,0,1.9c0.1,0.1,0.2,0.3,0.3,0.4c0.1,0.1,0.3,0.2,0.4,0.3
	c1,0.7,2,1.3,3,2c0.1,0.1,0.2,0.2,0.3,0.3c-0.2,0.1-0.3,0.3-0.4,0.3C47.3,14.6,46.3,15.3,45.3,16z M49.7,13c-0.1,0.1-0.2,0-0.4-0.1
	C49.5,12.8,49.6,12.8,49.7,13z M46.8,11.1c0.1,0,0.1,0.1,0.1,0.1C46.9,11.3,46.9,11.3,46.8,11.1z M47,11.2c0-0.1,0-0.1,0.1-0.2
	c0,0,0,0,0,0.1C47.1,11.1,47,11.1,47,11.2z"/>
<path d="M22.4,13.3c-0.3,0.3-0.2,0.6-0.3,0.9c-0.1,0.8-0.3,1.6-0.4,2.4c-0.2,0.9-0.3,1.8-0.4,2.8
	c-0.1,0.4-0.1,0.9-0.2,1.3c0,0.2-0.1,0.3-0.2,0.5c-0.7,0-1.4,0-2,0c-0.3-0.3-0.3-0.7-0.4-1.1c-0.2-1.2-0.4-2.4-0.6-3.7
	c-0.1-0.9-0.3-1.8-0.4-2.7c0-0.3-0.1-0.6-0.2-0.9c-0.1-0.8-0.2-1.6-0.4-2.3c-0.3-1.2-0.3-2.4-0.6-3.5c0-0.2,0-0.4-0.1-0.6
	c0.2-0.3,0.4-0.3,0.6-0.3c0.6,0,1.1,0,1.6,0c0.3,0.2,0.4,0.4,0.5,0.7c0.1,1.1,0.3,2.3,0.5,3.4c0.1,0.7,0.2,1.4,0.3,2.1
	c0.1,0.5,0.1,1,0.2,1.5c0,0.1,0.1,0.2,0.2,0.3c0.1-0.8,0.2-1.5,0.4-2.3c0-0.3,0.1-0.5,0.1-0.8c0.1-0.7,0.3-1.4,0.4-2.1
	c0.1-0.7,0.2-1.3,0.3-2c0-0.4,0-0.4,0.3-0.8c0.6-0.2,1.2-0.1,1.7-0.1c0.2,0,0.4,0.1,0.4,0.4c0,0,0,0,0,0.1c0.1,0.9,0.3,1.8,0.4,2.8
	c0.1,0.6,0.2,1.2,0.3,1.9c0.1,0.8,0.3,1.7,0.4,2.5c0,0.2,0.1,0.3,0.2,0.5c0-0.1,0.1-0.2,0.1-0.3c0.2-1.3,0.4-2.6,0.5-3.9
	c0.1-0.9,0.2-1.8,0.3-2.7c0-0.2,0.1-0.5,0.1-0.7c0.1-0.3,0.2-0.4,0.5-0.4c0.6,0,1.3,0,1.9,0c0.3,0.2,0.2,0.4,0.2,0.7
	c-0.2,1-0.4,1.9-0.5,2.9c-0.2,1-0.3,2-0.5,3c0,0.2-0.1,0.4-0.1,0.6c-0.1,0.6-0.2,1.2-0.3,1.8c-0.3,1.5-0.5,3.1-0.8,4.6
	c0,0.3-0.1,0.5-0.1,0.8c0,0.2-0.1,0.3-0.2,0.5c-1,0.2-1.7,0.1-2.3-0.2c-0.1-0.6-0.3-1.3-0.4-2c-0.2-1-0.3-2-0.5-3
	c-0.1-0.8-0.2-1.6-0.4-2.4C22.4,13.5,22.4,13.4,22.4,13.3z M19.2,16.9c0,0,0.1,0.1,0.1,0.1c0,0,0,0,0-0.1
	C19.3,16.9,19.3,16.9,19.2,16.9c-0.1-0.1-0.1-0.1-0.2-0.2c0,0-0.1,0-0.2,0C19,16.8,19,16.9,19,17C19.1,17,19.2,16.9,19.2,16.9z
	 M19.1,15.1c0-0.2-0.1-0.4-0.1-0.5c-0.2,0.1-0.3,0.1-0.6,0.2C18.7,14.9,18.8,15,19.1,15.1z M18.7,16.6c0.3-0.1,0.5-0.2,0.5-0.5
	C18.9,16.1,18.8,16.2,18.7,16.6z M25,18.6c-0.1,0-0.2,0.1-0.3,0.1c-0.1,0-0.1,0-0.2,0c0,0,0,0,0,0.1c0.1,0.1,0.3,0.2,0.5,0.3
	c0.1,0,0.1-0.1,0.2-0.1C25,18.7,25,18.6,25,18.6z M19.1,18.2c0,0.2,0,0.2,0.1,0.4c0.1-0.1,0.2-0.2,0.4-0.3
	C19.4,18.2,19.3,18.2,19.1,18.2z M18.8,15.4c0.2,0.1,0.4,0.1,0.5-0.1c-0.2,0-0.3,0-0.4,0C18.9,15.2,18.8,15.3,18.8,15.4z M18.6,15.4
	c-0.1,0.2,0,0.3,0.2,0.4C18.8,15.7,18.8,15.6,18.6,15.4z M22.3,9.7c-0.1-0.1-0.3-0.2-0.4,0.1c0.1,0.1,0.1,0.2,0.2,0.3
	C22.2,9.9,22.3,9.8,22.3,9.7z M23.1,11c0.1-0.3,0.1-0.3-0.2-0.4C22.9,10.7,23,10.8,23.1,11z M18.7,17.2c0.1-0.2,0.1-0.3-0.1-0.4
	c0,0.1,0,0.2,0,0.2C18.6,17.1,18.6,17.1,18.7,17.2z M19.9,17.3c-0.3,0.2-0.3,0.3-0.1,0.4C19.8,17.6,19.8,17.5,19.9,17.3z M21.9,10.9
	C21.9,10.9,22,11,21.9,10.9c0.2,0,0.2-0.1,0.3-0.2c-0.1,0-0.2-0.1-0.3-0.1C21.9,10.7,21.9,10.8,21.9,10.9z M21,14c0,0,0.1,0,0.1-0.1
	c-0.1-0.1-0.1-0.2-0.2-0.2c0,0,0,0-0.1,0.1C20.9,13.8,20.9,13.9,21,14z M18.7,14.1c0,0.1-0.1,0.2-0.1,0.3c0.2-0.1,0.2-0.2,0.3-0.2
	C18.8,14.2,18.8,14.2,18.7,14.1z M20.3,17C20.3,17,20.3,17,20.3,17c0,0.1,0.1,0.2,0.1,0.2c0,0,0,0,0-0.1C20.5,17.1,20.4,17,20.3,17z
	 M20.3,16.4C20.4,16.4,20.4,16.4,20.3,16.4c0.1,0,0.1,0,0.2-0.1c0,0,0,0,0-0.1C20.4,16.3,20.4,16.3,20.3,16.4z M18.5,12.7
	C18.5,12.7,18.5,12.7,18.5,12.7c0-0.1,0-0.1-0.1-0.2c0,0,0,0,0,0C18.4,12.7,18.5,12.7,18.5,12.7z M18.3,14
	C18.3,14.1,18.3,14.1,18.3,14c0.1,0,0.1,0.1,0.2,0.1c0,0,0,0,0-0.1C18.4,14,18.4,14,18.3,14z M26,14.5C26,14.5,26,14.5,26,14.5
	c0-0.1-0.1-0.1-0.1-0.1c0,0,0,0,0,0.1C25.9,14.5,25.9,14.5,26,14.5z M21.6,9.4C21.6,9.4,21.6,9.4,21.6,9.4c-0.1,0-0.1,0-0.2,0.1
	c0,0,0,0,0.1,0C21.6,9.5,21.6,9.5,21.6,9.4z M20.4,17.7C20.4,17.7,20.4,17.7,20.4,17.7c0,0.1,0.1,0.1,0.1,0.1c0,0,0,0,0-0.1
	C20.5,17.7,20.5,17.7,20.4,17.7z M26,14.8C26,14.8,26,14.8,26,14.8c0,0-0.1,0-0.1,0C25.9,14.8,25.9,14.9,26,14.8
	C26,14.8,26,14.8,26,14.8z M23.6,13.1C23.6,13.1,23.6,13.1,23.6,13.1c0,0,0,0.1,0,0.1c0,0,0,0,0,0C23.6,13.1,23.6,13.1,23.6,13.1z
	 M26.1,12.3C26.1,12.3,26.1,12.3,26.1,12.3c-0.1,0-0.1,0-0.1,0c0,0,0,0,0,0C26.1,12.3,26.1,12.3,26.1,12.3z M19,17.8
	C19,17.8,19,17.8,19,17.8C19,17.8,19,17.8,19,17.8C19,17.8,19,17.8,19,17.8C19,17.8,19,17.8,19,17.8z M26.5,9.2
	C26.4,9.2,26.4,9.2,26.5,9.2C26.4,9.2,26.4,9.2,26.5,9.2z"/>
<path d="M10.5,15.9c0,0.6,0.1,1.1,0.1,1.6c0,0.2,0,0.5,0.1,0.6c0.3,0.6,0.5,0.9,1.5,0.8c0.1-0.1,0.3-0.2,0.3-0.3
	c0.1-0.2,0.2-0.4,0.3-0.6c0.1-0.5,0-1-0.2-1.4c-0.2-0.5-0.6-1-1-1.4c-0.5-0.5-1-1-1.5-1.5c-0.7-0.7-1.4-1.5-1.7-2.5
	c-0.1-0.1-0.1-0.3-0.1-0.4c0-0.5-0.2-1-0.1-1.5C8.2,8.9,8.2,8.4,8.4,8c0.3-0.9,0.9-1.5,1.8-1.8c0.7-0.2,1.4-0.4,2.1-0.3
	c1.6,0.2,2.8,1.4,3,3c0.1,0.7,0.1,1.3,0.1,1.9c-0.2,0.3-0.4,0.3-0.6,0.3c-0.5,0-1.1,0-1.6,0c-0.3-0.1-0.3-0.4-0.3-0.6
	c0-0.5,0-1-0.2-1.5c-0.2-0.5-0.4-0.6-0.9-0.6c-0.4,0-0.8,0.2-0.9,0.6c-0.2,0.4-0.1,0.8,0,1.1c0.3,0.6,0.6,1.2,1.2,1.7
	c0.5,0.5,1,0.9,1.5,1.5c0.2,0.3,0.4,0.5,0.7,0.7c0.4,0.4,0.7,0.9,0.9,1.5c0.4,0.9,0.5,1.8,0.4,2.7c-0.2,1.8-1.4,2.9-2.9,3.1
	c-0.6,0.1-1.2,0.1-1.8,0c-0.7-0.1-1.4-0.5-1.9-1.1C8.3,19.5,8,18.7,8,17.8c0-0.5,0-0.9,0-1.4c0-0.4,0.2-0.6,0.6-0.6
	c0.4,0,0.9,0,1.3,0C10.1,15.8,10.3,15.9,10.5,15.9z M12.9,14.7c-0.1,0.1-0.2,0.2-0.2,0.3c0.2,0.1,0.4,0.1,0.6,0.2c0,0,0-0.1,0.1-0.1
	C13.1,15,13,14.9,12.9,14.7z M10.1,12.1c0.1,0,0.3,0,0.4,0c-0.1-0.2-0.2-0.3-0.3-0.4C10.2,11.9,10.1,12,10.1,12.1z M13.2,15.5
	c-0.2-0.2-0.3-0.2-0.3,0.1C13,15.5,13.1,15.5,13.2,15.5z M13.7,15.1c0,0.1-0.1,0.2-0.1,0.4c0.2-0.1,0.2-0.2,0.3-0.2
	C13.9,15.2,13.8,15.2,13.7,15.1z M11.8,13.5C11.8,13.5,11.8,13.5,11.8,13.5c0-0.2-0.1-0.2-0.2-0.3c0,0,0,0,0,0.1
	C11.6,13.4,11.7,13.5,11.8,13.5z M9.1,9.9c0-0.1,0-0.2,0-0.2c0,0-0.1-0.1-0.1-0.1c0,0,0,0-0.1,0.1C9,9.6,9.1,9.7,9.1,9.9z M9.4,10.2
	C9.4,10.2,9.4,10.3,9.4,10.2c0.1,0.1,0.2,0,0.3,0c0,0,0,0,0-0.1C9.6,10.2,9.5,10.2,9.4,10.2z M14,16.1c-0.1,0-0.2,0-0.2,0
	c0,0-0.1,0.1-0.1,0.1c0,0,0,0,0.1,0.1C13.8,16.3,13.8,16.2,14,16.1z M10.1,10.4C10.1,10.3,10,10.3,10.1,10.4c-0.1,0-0.1,0-0.2,0
	c0,0,0,0,0,0.1C10,10.4,10,10.4,10.1,10.4z M13.1,14.1C13.1,14.1,13.1,14,13.1,14.1c0-0.1-0.1-0.1-0.1-0.1c0,0,0,0,0,0
	C13,14,13,14,13.1,14.1z M10.4,11.3C10.3,11.3,10.3,11.3,10.4,11.3c0,0.1,0.1,0.1,0.1,0.2c0,0,0,0,0,0
	C10.4,11.3,10.4,11.3,10.4,11.3z M10.8,13C10.8,12.9,10.8,12.9,10.8,13c0-0.1,0-0.1,0-0.1C10.8,12.9,10.8,12.9,10.8,13z M14,8.7
	C13.9,8.7,14,8.7,14,8.7C14,8.6,13.9,8.6,14,8.7z M9.2,8.6C9.2,8.6,9.2,8.6,9.2,8.6c0,0,0,0.1,0,0.1c0,0,0,0,0.1,0
	C9.3,8.7,9.3,8.7,9.2,8.6z M13.8,8.3C13.8,8.3,13.8,8.3,13.8,8.3c0,0,0-0.1,0-0.1c0,0,0,0,0,0C13.8,8.2,13.8,8.3,13.8,8.3z"/>
<path d="M29.6,6.5c0.2-0.3,0.4-0.3,0.6-0.3c1.8,0,3.5,0,5.3,0c0.2,0,0.4,0.1,0.6,0.1c0.1,0.7,0.1,1.5,0,2.2
	c-0.2,0-0.4,0.1-0.5,0.1c-0.8,0-1.7,0-2.5,0c-0.2,0-0.4,0-0.6,0c-0.2,0.5-0.2,1.1-0.1,1.6c0,0.7-0.1,1.3,0.2,2c0.9,0,1.7,0,2.5,0
	c0.1,0.1,0.2,0.3,0.2,0.4c0,0.6,0.2,1.3-0.1,1.9c-0.8,0.2-1.7,0-2.5,0.1c-0.1,0.1-0.1,0.2-0.1,0.3c0,0.2-0.1,0.4-0.1,0.6
	c0.2,1-0.1,2,0.1,3.1c0.2,0,0.4,0.1,0.6,0.1c0.7,0,1.4,0,2.1-0.1c0.4,0,0.8,0,1.2,0.2c0.1,0.6,0,1.3,0,1.9c0,0.1-0.1,0.2-0.1,0.3
	c-0.8,0.1-6,0.1-6.4-0.1c-0.2-0.2-0.2-0.5-0.2-0.8c0-1.6,0-3.2,0-4.7c0-2.6,0-5.1,0-7.7C29.6,7.4,29.6,6.9,29.6,6.5z M31.3,12.8
	C31.3,12.8,31.3,12.9,31.3,12.8c0.1,0.2,0.2,0.3,0.4,0.4c0.1-0.1,0.1-0.3,0.3-0.5c-0.2,0.1-0.3,0.1-0.4,0.1
	C31.5,12.9,31.4,12.8,31.3,12.8z M31.6,8.2c0.3,0.1,0.4,0,0.3-0.2C31.8,8.1,31.7,8.1,31.6,8.2z M31.2,14.2c-0.2,0.1-0.2,0.2,0,0.3
	C31.2,14.3,31.2,14.2,31.2,14.2z M31.4,11.5c0.1,0.1,0.1,0.1,0.2,0.2c0-0.1,0-0.2,0-0.4C31.4,11.4,31.4,11.5,31.4,11.5z M30.4,10.7
	c-0.1,0-0.1-0.1-0.1-0.1c0,0-0.1,0.1-0.1,0.1c0,0,0,0.1,0.1,0.1C30.3,10.8,30.3,10.7,30.4,10.7z M31,10.1C31,10.1,31,10.1,31,10.1
	c-0.1,0-0.2,0-0.2,0c0,0,0,0,0.1,0.1C30.9,10.2,31,10.2,31,10.1z M30.3,10c0,0,0.1-0.1,0.1-0.1c0,0-0.1-0.1-0.1-0.1
	c0,0-0.1,0.1-0.1,0.1C30.3,9.9,30.3,9.9,30.3,10z M31.8,13.9C31.9,13.9,31.9,14,31.8,13.9c0.1,0,0.2,0,0.2,0c0,0-0.1-0.1-0.1-0.1
	C31.9,13.8,31.9,13.9,31.8,13.9z M31.6,7.7C31.5,7.7,31.5,7.7,31.6,7.7c0,0.1,0,0.1,0.1,0.1c0,0,0,0,0,0C31.6,7.7,31.6,7.7,31.6,7.7
	z M30.7,14.8C30.8,14.8,30.8,14.8,30.7,14.8c0.1-0.1,0.1-0.2,0-0.2c0,0-0.1,0-0.1,0C30.7,14.7,30.7,14.8,30.7,14.8z M30.2,13
	C30.2,13,30.2,13,30.2,13c0,0,0,0.1,0,0.1c0,0,0,0,0,0C30.2,13,30.2,13,30.2,13z M30.3,12.6C30.3,12.6,30.3,12.6,30.3,12.6
	c0,0,0.1,0,0.1,0c0,0,0,0,0,0C30.4,12.6,30.4,12.6,30.3,12.6z M30.9,12.2C30.9,12.2,30.9,12.2,30.9,12.2c0,0,0.1,0,0.1,0
	c0,0,0,0,0,0C31,12.2,30.9,12.2,30.9,12.2z M31,9.2C31,9.2,31,9.2,31,9.2c0.1,0.1,0.1,0,0.2,0C31.1,9.2,31,9.2,31,9.2z M32.1,19.2
	C32.1,19.1,32.1,19.1,32.1,19.2c-0.1-0.1-0.1,0-0.2,0C32,19.1,32.1,19.1,32.1,19.2z"/>
<path d="M6.3,10.7c-0.2,0.4-0.4,0.5-0.7,0.7c-0.4,0.2-0.8,0.6-1.2,0.8c-0.6,0.4-1.1,0.8-1.7,1.1
	c-0.1,0.1-0.2,0.2-0.3,0.4c0.6,0.6,1.3,0.8,1.9,1.3c0.6,0.5,1.3,0.8,1.9,1.4c0,0.7,0.1,1.4,0,2.1c-0.1-0.1-0.3-0.1-0.4-0.1
	c-0.5-0.3-0.9-0.7-1.4-1c-0.4-0.3-0.8-0.5-1.3-0.8c-0.7-0.5-1.4-1-2.1-1.4c-0.2-0.1-0.4-0.3-0.6-0.5c-0.2-0.1-0.3-0.4-0.3-0.7
	c0-0.4,0-0.8,0-1.3c0.3-0.3,0.6-0.5,1-0.7c0.5-0.4,1.1-0.8,1.6-1.1c0.5-0.3,0.9-0.6,1.4-0.9c0.5-0.3,1-0.7,1.5-1
	c0.2-0.1,0.4-0.3,0.6-0.2C6.4,9.4,6.4,10,6.3,10.7z M4.6,11.1c0,0,0-0.1,0-0.1c-0.1,0-0.1,0-0.2,0c0,0.1,0.1,0.1,0.1,0.1
	C4.5,11.2,4.6,11.1,4.6,11.1z M5.6,17C5.6,17,5.6,17,5.6,17c0,0,0,0.1,0,0.1C5.6,17.1,5.6,17.1,5.6,17C5.6,17.1,5.6,17.1,5.6,17z
	 M2.9,12.4C2.9,12.4,2.9,12.4,2.9,12.4c0,0,0-0.1,0-0.1c0,0,0,0,0,0C2.9,12.3,2.9,12.4,2.9,12.4z"/>
<path d="M82.5,20.7c0,0.3,0.1,0.6,0.1,0.9c0,1.2,0,2.5,0,3.7c0,0.5-0.1,1.1-0.3,1.6c-0.5,1.4-1.6,2.1-3,2.2
	c-1.3,0.1-2.5,0-3.8,0c-0.2,0-0.3-0.1-0.4-0.1c0-0.4-0.1-0.7-0.1-1c0-0.7,0-1.4,0-2.1c0-0.2,0.1-0.3,0.1-0.5c0-0.2-0.1-0.4-0.1-0.6
	c0-1.3,0-2.6,0-3.9c0-2.1,0-4.2,0-6.3c0-0.1,0-0.2,0-0.3c0.2-0.2,0.4-0.2,0.6-0.2c0.8,0,1.7,0,2.5,0c0.6,0,1.2,0,1.8,0.1
	c0.7,0.1,1.3,0.4,1.7,0.9c0.3,0.3,0.5,0.7,0.7,1.1c0.2,0.4,0.2,0.8,0.3,1.2c0,0.5,0.1,1,0,1.6c-0.1,0.4,0.1,0.8,0.1,1.2
	C82.6,20.3,82.6,20.5,82.5,20.7z M81.8,18.1c0-0.1,0.1-0.2,0.1-0.2c0,0,0,0-0.1,0C81.9,17.9,81.9,18,81.8,18.1
	c-0.2-0.1-0.2,0.1-0.2,0.2c-0.1,0-0.2,0-0.4,0c0.3,0.2,0.3,0.2,0.4,0C81.7,18.2,81.8,18.2,81.8,18.1z M80.7,19.9
	c0.3-0.1,0.3-0.1,0.2-0.3C80.8,19.7,80.8,19.9,80.7,19.9c0,0-0.1,0.1-0.2,0.1c0.1,0.1,0.1,0.2,0.1,0.3c0,0,0,0,0.1,0
	C80.7,20.2,80.7,20.1,80.7,19.9z M77.8,26.6c0.5,0,0.8,0.1,1.2,0c0.4-0.1,0.8-0.3,0.8-0.8c0-0.3,0.1-0.5,0.1-0.8c0-1.9,0-3.8,0-5.7
	c0-0.6,0-1.1,0-1.7c0-0.4-0.2-0.7-0.4-1c-0.6-0.1-1.1-0.3-1.7,0C77.7,19.9,77.7,23.2,77.8,26.6z M78.8,15.3c0.2,0.2,0.4,0.3,0.7,0.5
	c-0.1-0.2-0.1-0.4-0.1-0.5c-0.2-0.1-0.4-0.1-0.5-0.2C78.8,15.2,78.8,15.2,78.8,15.3z M81.2,18.9c0.3,0.1,0.3,0.1,0.6,0
	C81.6,18.8,81.4,18.7,81.2,18.9z M81.5,16.5C81.5,16.5,81.5,16.5,81.5,16.5c0-0.2-0.1-0.3-0.1-0.4c-0.2,0-0.3,0-0.4,0
	C81.2,16.3,81.3,16.4,81.5,16.5z M80.4,18.7C80.4,18.8,80.4,18.8,80.4,18.7c0.2,0,0.3,0,0.5,0c-0.1-0.1-0.1-0.1-0.2-0.2
	C80.7,18.6,80.5,18.7,80.4,18.7z M81.5,17.8c0-0.2,0-0.3-0.3-0.4C81.2,17.7,81.3,17.7,81.5,17.8z M80.4,15.2c0,0,0,0.1-0.1,0.1
	c0.1,0,0.2,0,0.2,0c0,0,0,0,0-0.1C80.5,15.3,80.4,15.3,80.4,15.2z M81.6,19.7c0,0-0.1,0-0.1,0c0,0.1,0,0.2,0,0.3c0,0,0.1,0,0.1,0
	C81.6,19.9,81.6,19.8,81.6,19.7z M81,16.7C81,16.7,81,16.7,81,16.7c0.1,0,0.2-0.1,0.2-0.2c0,0,0,0-0.1,0C81.1,16.5,81,16.6,81,16.7z
	 M81.3,20.6c0,0,0.1,0,0.1-0.1c0-0.1-0.1-0.1-0.1-0.2c0,0,0,0-0.1,0C81.2,20.5,81.3,20.5,81.3,20.6z M80.6,16.9
	C80.7,17,80.7,17,80.6,16.9c0.1,0.1,0.1,0,0.1,0C80.7,16.9,80.7,16.9,80.6,16.9z M80.7,19.2C80.7,19.2,80.7,19.2,80.7,19.2
	c0.1,0,0.1-0.1,0.1-0.1c0,0-0.1,0-0.1,0C80.7,19.1,80.7,19.2,80.7,19.2z M80.6,16.1C80.6,16.1,80.6,16.2,80.6,16.1c0,0,0.1,0,0.1,0
	c0,0,0,0,0,0C80.7,16.1,80.6,16.1,80.6,16.1z M79.1,14.9C79.2,14.9,79.2,15,79.1,14.9C79.2,15,79.2,14.9,79.1,14.9
	C79.2,14.9,79.2,14.9,79.1,14.9z"/>
<path d="M91.4,14.3c0.2-0.3,0.5-0.3,0.7-0.3c0.7,0,1.4-0.2,2,0.2c0.1,0.7,0.2,1.4,0.4,2.1c0.2,0.7,0.2,1.5,0.3,2.2
	c0.2,0.7,0.2,1.4,0.4,2.2c0.1,0.7,0.2,1.4,0.3,2.1c0,0,0.1,0,0.1,0c0.1-0.2,0.2-0.5,0.3-0.8c-0.1-0.6,0.1-1.1,0.2-1.7
	c0.1-0.8,0.3-1.6,0.4-2.4c0.2-1.2,0.4-2.3,0.6-3.5c0.1-0.3,0.2-0.5,0.5-0.5c0.6,0,1.3,0,1.9,0c0,0,0.1,0.1,0.2,0.1
	c0.1,0.3,0.1,0.5,0,0.8c-0.1,0.6-0.3,1.2-0.4,1.8c-0.1,0.7-0.2,1.3-0.3,2c-0.3,1.4-0.5,2.7-0.8,4.1c-0.2,1.1-0.5,2.3-0.7,3.4
	c-0.1,0.7-0.3,1.4-0.4,2.1c0,0.2-0.1,0.5-0.3,0.7c-0.8,0-1.6,0.1-2.5-0.1c-0.6-2.4-1-4.9-1.5-7.3C92.3,19.1,91.9,16.7,91.4,14.3z
	 M96.1,26.4c-0.3-0.1-0.4,0-0.5,0.4C95.9,26.6,96,26.5,96.1,26.4z M94.3,20.8c-0.1,0.1-0.2,0.1-0.3,0.2c0.1,0.1,0.2,0.1,0.4,0.2
	C94.3,21,94.3,20.9,94.3,20.8z M96.2,27C96.1,27,96.1,26.9,96.2,27c-0.1,0-0.2,0.1-0.2,0.2c0,0,0.1,0,0.1,0.1
	C96,27.1,96.1,27.1,96.2,27z M94.8,26.5c-0.1-0.1-0.1-0.1-0.2-0.1c0,0-0.1,0-0.2,0.1c0.1,0,0.1,0.1,0.2,0.1
	C94.6,26.6,94.7,26.6,94.8,26.5z M94.3,23.8c0-0.1,0-0.2,0-0.3C94.1,23.6,94.1,23.7,94.3,23.8z M95.7,27.2c0,0.1,0,0.2,0.1,0.2
	c0,0,0.1,0,0.1,0C95.8,27.4,95.7,27.3,95.7,27.2z M95.2,26.4C95.2,26.4,95.1,26.4,95.2,26.4c-0.1,0-0.1,0-0.2,0c0,0,0,0,0.1,0.1
	C95.1,26.5,95.1,26.5,95.2,26.4z"/>
<path d="M87,20.1c0.9,0,1.7,0,2.5,0c0.1,0.2,0.2,0.3,0.2,0.4c0,0.6,0.2,1.2-0.1,1.8c-0.8,0.2-1.7,0-2.5,0.1
	c-0.3,0.3-0.2,0.7-0.3,1.1c0,0.6,0,1.2,0,1.9c0,0.3,0.1,0.7,0.1,1.1c0.5,0.2,1.1,0.1,1.6,0.1c0.7,0,1.4-0.1,2.1,0.1
	c0.1,0,0.1,0,0.2,0.1c0.2,0.7,0.1,1.3,0,2c0,0.1-0.1,0.2-0.1,0.3c-0.8,0.1-6,0.1-6.5-0.1c0-0.2-0.1-0.5-0.1-0.7c0-2.4,0-4.9,0-7.3
	c0-1.7,0-3.5,0-5.2c0-0.5,0-0.9,0-1.3c0.2-0.3,0.4-0.3,0.7-0.3c1.3,0,2.6,0,4,0c0.4,0,0.8,0,1.2,0c0.2,0,0.5,0.1,0.7,0.1
	c0.1,0.8,0.2,1.5-0.1,2.3c-1.2,0-2.4,0-3.6,0c-0.2,0.6-0.2,1.1-0.1,1.6C86.8,18.7,86.6,19.4,87,20.1z M85.8,20.6
	C85.8,20.7,85.8,20.7,85.8,20.6c0.1,0.2,0.2,0.3,0.4,0.4c0.1-0.1,0.2-0.2,0.3-0.5c-0.2,0.1-0.3,0.1-0.4,0.1
	C86,20.7,85.9,20.7,85.8,20.6z M86.4,15.7c-0.2,0.2-0.2,0.3-0.4,0.4c0.2,0,0.2,0,0.3,0C86.4,16,86.4,15.9,86.4,15.7z M85.6,22
	C85.6,22,85.6,22,85.6,22c-0.1,0.1-0.1,0.1-0.1,0.2c0,0.1,0.1,0.1,0.1,0.2c0,0,0,0,0.1,0C85.7,22.2,85.7,22.1,85.6,22z M85.2,22.4
	C85.2,22.4,85.2,22.4,85.2,22.4c-0.1,0.1,0,0.2,0,0.3c0,0,0.1,0,0.1,0C85.3,22.6,85.3,22.5,85.2,22.4z M86,19.2
	c-0.1,0.1-0.1,0.1-0.2,0.1c0.1,0,0.1,0.1,0.2,0.2C86,19.4,86,19.3,86,19.2z M84.9,18.5c-0.1,0-0.2-0.1-0.2-0.1c0,0-0.1,0-0.1,0
	c0,0,0,0.1,0,0.1C84.7,18.6,84.8,18.6,84.9,18.5z M84.9,17.8C84.9,17.8,84.9,17.7,84.9,17.8c0-0.1,0-0.2-0.1-0.2c0,0,0,0-0.1,0.1
	C84.8,17.7,84.8,17.7,84.9,17.8z M85.5,17.9C85.4,17.9,85.4,17.9,85.5,17.9c-0.1,0-0.1,0-0.2,0.1c0,0,0,0,0,0
	C85.4,18,85.4,18,85.5,17.9z M85.4,17C85.4,17,85.4,17,85.4,17c0.1,0,0.1,0,0.2,0c0,0,0-0.1,0-0.1C85.5,17,85.5,17,85.4,17z
	 M86,15.5C86,15.5,86,15.5,86,15.5c0,0.1,0,0.1,0.1,0.1c0,0,0,0,0,0C86.1,15.6,86,15.5,86,15.5z M86.3,21.7
	C86.3,21.8,86.3,21.8,86.3,21.7c0.1,0,0.1,0,0.2-0.1c0,0,0,0-0.1-0.1C86.4,21.7,86.3,21.7,86.3,21.7z"/>
</svg>
