<?xml version="1.0" encoding="UTF-8"?>
<svg xmlns="http://www.w3.org/2000/svg" xmlns:xlink="http://www.w3.org/1999/xlink" viewBox="0 0 512 256">
<g style="transform: rotate(180deg); transform-origin: center">
<g id="V" fill="#b00000">
<circle id="c001" r="6" cx="6.0000" cy="250.00"/>
<circle id="c002" r="6" cx="20.710" cy="250.00"/>
<circle id="c003" r="6" cx="35.420" cy="250.00"/>
<circle id="c004" r="6" cx="50.150" cy="250.00"/>
<circle id="c005" r="6" cx="64.860" cy="250.00"/>
<circle id="c006" r="6" cx="79.580" cy="250.00"/>
<circle id="c007" r="6" cx="94.290" cy="250.00"/>
<circle id="c008" r="6" cx="109.02" cy="250.00"/>
<circle id="c009" r="6" cx="123.74" cy="250.00"/>
<circle id="c010" r="6" cx="138.47" cy="250.00"/>
<circle id="c011" r="6" cx="6.9300" cy="233.57"/>
<circle id="c012" r="6" cx="21.710" cy="233.50"/>
<circle id="c013" r="6" cx="36.490" cy="233.43"/>
<circle id="c014" r="6" cx="51.290" cy="233.34"/>
<circle id="c015" r="6" cx="66.120" cy="233.23"/>
<circle id="c016" r="6" cx="80.950" cy="233.10"/>
<circle id="c017" r="6" cx="95.750" cy="233.53"/>
<circle id="c018" r="6" cx="110.62" cy="233.41"/>
<circle id="c019" r="6" cx="8.9300" cy="217.23"/>
<circle id="c020" r="6" cx="23.860" cy="217.12"/>
<circle id="c021" r="6" cx="125.55" cy="233.28"/>
<circle id="c022" r="6" cx="38.800" cy="216.97"/>
<circle id="c023" r="6" cx="53.790" cy="216.82"/>
<circle id="c024" r="6" cx="140.54" cy="233.10"/>
<circle id="c025" r="6" cx="68.840" cy="216.63"/>
<circle id="c026" r="6" cx="12.020" cy="201.07"/>
<circle id="c027" r="6" cx="83.950" cy="216.42"/>
</g><g id="ind" fill="#d2d2d2">
<circle id="c028" r="6" cx="27.150" cy="200.91"/>
</g><g id="S" fill="#ed1b34">
<circle id="c029" r="6" cx="98.870" cy="217.28"/>
<circle id="c030" r="6" cx="42.350" cy="200.75"/>
<circle id="c031" r="6" cx="114.11" cy="217.12"/>
<circle id="c032" r="6" cx="57.630" cy="200.56"/>
<circle id="c033" r="6" cx="16.150" cy="185.13"/>
<circle id="c034" r="6" cx="73.020" cy="200.34"/>
<circle id="c035" r="6" cx="129.48" cy="216.91"/>
<circle id="c036" r="6" cx="31.580" cy="184.98"/>
<circle id="c037" r="6" cx="88.520" cy="200.10"/>
<circle id="c038" r="6" cx="47.100" cy="184.82"/>
<circle id="c039" r="6" cx="145.04" cy="216.69"/>
<circle id="c040" r="6" cx="103.63" cy="201.44"/>
<circle id="c041" r="6" cx="21.330" cy="169.51"/>
<circle id="c042" r="6" cx="62.770" cy="184.66"/>
<circle id="c043" r="6" cx="37.110" cy="169.41"/>
<circle id="c044" r="6" cx="119.40" cy="201.31"/>
<circle id="c045" r="6" cx="78.610" cy="184.48"/>
<circle id="c046" r="6" cx="53.040" cy="169.30"/>
<circle id="c047" r="6" cx="94.660" cy="184.29"/>
<circle id="c048" r="6" cx="27.520" cy="154.26"/>
<circle id="c049" r="6" cx="135.44" cy="201.19"/>
<circle id="c050" r="6" cx="69.180" cy="169.23"/>
<circle id="c051" r="6" cx="109.99" cy="186.17"/>
<circle id="c052" r="6" cx="43.720" cy="154.26"/>
<circle id="c053" r="6" cx="85.570" cy="169.17"/>
<circle id="c054" r="6" cx="60.130" cy="154.29"/>
<circle id="c055" r="6" cx="34.700" cy="139.45"/>
<circle id="c056" r="6" cx="151.87" cy="201.09"/>
<circle id="c057" r="6" cx="126.45" cy="186.20"/>
<circle id="c058" r="6" cx="102.26" cy="169.14"/>
<circle id="c059" r="6" cx="76.830" cy="154.36"/>
<circle id="c060" r="6" cx="51.380" cy="139.61"/>
<circle id="c061" r="6" cx="117.87" cy="171.63"/>
<circle id="c062" r="6" cx="42.830" cy="125.15"/>
<circle id="c063" r="6" cx="143.35" cy="186.33"/>
<circle id="c064" r="6" cx="68.340" cy="139.85"/>
<circle id="c065" r="6" cx="93.850" cy="154.52"/>
<circle id="c066" r="6" cx="60.050" cy="125.54"/>
<circle id="c067" r="6" cx="85.660" cy="140.18"/>
<circle id="c068" r="6" cx="135.17" cy="172.00"/>
<circle id="c069" r="6" cx="111.30" cy="154.80"/>
<circle id="c070" r="6" cx="51.910" cy="111.40"/>
<circle id="c071" r="6" cx="77.610" cy="126.05"/>
<circle id="c072" r="6" cx="160.87" cy="186.63"/>
<circle id="c073" r="6" cx="103.40" cy="140.67"/>
<circle id="c074" r="6" cx="127.20" cy="157.97"/>
<circle id="c075" r="6" cx="69.680" cy="112.09"/>
<circle id="c076" r="6" cx="95.600" cy="126.74"/>
<circle id="c077" r="6" cx="153.09" cy="172.61"/>
<circle id="c078" r="6" cx="61.850" cy="98.300"/>
<circle id="c079" r="6" cx="87.890" cy="112.99"/>
<circle id="c080" r="6" cx="121.67" cy="141.39"/>
<circle id="c081" r="6" cx="145.44" cy="158.88"/>
<circle id="c082" r="6" cx="80.240" cy="99.307"/>
<circle id="c083" r="6" cx="114.11" cy="127.70"/>
<circle id="c084" r="6" cx="72.650" cy="85.870"/>
<circle id="c085" r="6" cx="137.88" cy="145.32"/>
<circle id="c086" r="6" cx="106.60" cy="114.17"/>
<circle id="c087" r="6" cx="171.86" cy="173.63"/>
<circle id="c088" r="6" cx="99.120" cy="100.76"/>
<circle id="c089" r="6" cx="91.670" cy="87.430"/>
<circle id="c090" r="6" cx="133.27" cy="129.04"/>
<circle id="c091" r="6" cx="164.49" cy="160.23"/>
<circle id="c092" r="6" cx="84.230" cy="74.180"/>
<circle id="c093" r="6" cx="125.93" cy="115.73"/>
<circle id="c094" r="6" cx="157.13" cy="146.98"/>
<circle id="c095" r="6" cx="118.58" cy="102.54"/>
<circle id="c096" r="6" cx="149.78" cy="133.85"/>
<circle id="c097" r="6" cx="111.24" cy="89.390"/>
<circle id="c098" r="6" cx="103.90" cy="76.310"/>
<circle id="c099" r="6" cx="96.560" cy="63.270"/>
<circle id="c100" r="6" cx="146.01" cy="117.84"/>
<circle id="c101" r="6" cx="138.74" cy="104.84"/>
<circle id="c102" r="6" cx="184.61" cy="162.35"/>
<circle id="c103" r="6" cx="131.48" cy="91.890"/>
<circle id="c104" r="6" cx="124.18" cy="78.970"/>
<circle id="c105" r="6" cx="177.36" cy="149.41"/>
<circle id="c106" r="6" cx="116.89" cy="66.080"/>
<circle id="c107" r="6" cx="109.59" cy="53.210"/>
<circle id="c108" r="6" cx="170.09" cy="136.51"/>
<circle id="c109" r="6" cx="162.80" cy="123.64"/>
<circle id="c110" r="6" cx="159.77" cy="107.93"/>
<circle id="c111" r="6" cx="152.48" cy="95.120"/>
<circle id="c112" r="6" cx="145.19" cy="82.340"/>
<circle id="c113" r="6" cx="137.88" cy="69.560"/>
<circle id="c114" r="6" cx="130.55" cy="56.780"/>
<circle id="c115" r="6" cx="123.24" cy="44.020"/>
<circle id="c116" r="6" cx="176.80" cy="114.82"/>
<circle id="c117" r="6" cx="184.16" cy="127.55"/>
<circle id="c118" r="6" cx="191.51" cy="140.29"/>
<circle id="c119" r="6" cx="198.87" cy="153.02"/>
<circle id="c120" r="6" cx="137.47" cy="35.740"/>
<circle id="c121" r="6" cx="144.85" cy="48.470"/>
<circle id="c122" r="6" cx="152.23" cy="61.190"/>
<circle id="c123" r="6" cx="159.62" cy="73.930"/>
<circle id="c124" r="6" cx="167.02" cy="86.650"/>
<circle id="c125" r="6" cx="174.42" cy="99.390"/>
<circle id="c126" r="6" cx="152.22" cy="28.410"/>
<circle id="c127" r="6" cx="159.69" cy="41.180"/>
<circle id="c128" r="6" cx="167.18" cy="53.940"/>
</g><g id="MP" fill="#00c554">
<circle id="c129" r="6" cx="191.63" cy="107.46"/>
<circle id="c130" r="6" cx="174.70" cy="66.710"/>
<circle id="c131" r="6" cx="199.15" cy="120.24"/>
<circle id="c132" r="6" cx="182.23" cy="79.490"/>
<circle id="c133" r="6" cx="189.80" cy="92.280"/>
<circle id="c134" r="6" cx="206.69" cy="133.04"/>
<circle id="c135" r="6" cx="167.42" cy="22.090"/>
<circle id="c136" r="6" cx="214.31" cy="145.86"/>
<circle id="c137" r="6" cx="175.01" cy="34.940"/>
<circle id="c138" r="6" cx="182.63" cy="47.830"/>
<circle id="c139" r="6" cx="190.30" cy="60.740"/>
<circle id="c140" r="6" cx="198.03" cy="73.700"/>
<circle id="c141" r="6" cx="207.12" cy="101.67"/>
<circle id="c142" r="6" cx="182.99" cy="16.770"/>
<circle id="c143" r="6" cx="205.81" cy="86.680"/>
<circle id="c144" r="6" cx="214.86" cy="114.68"/>
</g><g id="L" fill="#0069b4">
<circle id="c145" r="6" cx="190.72" cy="29.810"/>
<circle id="c146" r="6" cx="198.50" cy="42.900"/>
<circle id="c147" r="6" cx="222.68" cy="127.79"/>
<circle id="c148" r="6" cx="206.34" cy="56.060"/>
<circle id="c149" r="6" cx="198.88" cy="12.470"/>
<circle id="c150" r="6" cx="214.27" cy="69.300"/>
<circle id="c151" r="6" cx="230.64" cy="140.99"/>
<circle id="c152" r="6" cx="206.75" cy="25.780"/>
<circle id="c153" r="6" cx="223.12" cy="97.480"/>
<circle id="c154" r="6" cx="239.20" cy="124.60"/>
<circle id="c155" r="6" cx="222.28" cy="82.650"/>
<circle id="c156" r="6" cx="214.69" cy="39.180"/>
<circle id="c157" r="6" cx="231.10" cy="110.93"/>
<circle id="c158" r="6" cx="215.02" cy="9.2500"/>
<circle id="c159" r="6" cx="222.71" cy="52.690"/>
<circle id="c160" r="6" cx="223.03" cy="22.900"/>
<circle id="c161" r="6" cx="230.83" cy="66.360"/>
<circle id="c162" r="6" cx="231.13" cy="36.690"/>
<circle id="c163" r="6" cx="239.48" cy="94.960"/>
</g><g id="ind2" fill="#d2d2d2">
<circle id="c164" r="6" cx="231.35" cy="7.0900"/>
</g><g id="C" fill="#39944a">
<circle id="c165" r="6" cx="239.07" cy="80.210"/>
<circle id="c166" r="6" cx="239.30" cy="50.660"/>
<circle id="c167" r="6" cx="247.48" cy="138.54"/>
<circle id="c168" r="6" cx="239.48" cy="21.150"/>
<circle id="c169" r="6" cx="247.66" cy="109.05"/>
<circle id="c170" r="6" cx="247.59" cy="64.890"/>
<circle id="c171" r="6" cx="247.69" cy="35.440"/>
<circle id="c172" r="6" cx="247.76" cy="6.0000"/>
<circle id="c173" r="6" cx="256.00" cy="123.52"/>
<circle id="c174" r="6" cx="256.00" cy="20.570"/>
<circle id="c175" r="6" cx="256.00" cy="49.990"/>
<circle id="c176" r="6" cx="256.00" cy="79.400"/>
<circle id="c177" r="6" cx="256.00" cy="94.110"/>
<circle id="c178" r="6" cx="264.24" cy="6.0000"/>
<circle id="c179" r="6" cx="264.31" cy="35.440"/>
<circle id="c180" r="6" cx="264.41" cy="64.890"/>
<circle id="c181" r="6" cx="264.34" cy="109.05"/>
<circle id="c182" r="6" cx="272.52" cy="21.150"/>
<circle id="c183" r="6" cx="264.52" cy="138.54"/>
<circle id="c184" r="6" cx="272.70" cy="50.660"/>
<circle id="c185" r="6" cx="272.93" cy="80.210"/>
<circle id="c186" r="6" cx="280.65" cy="7.0900"/>
<circle id="c187" r="6" cx="272.52" cy="94.960"/>
<circle id="c188" r="6" cx="280.88" cy="36.690"/>
<circle id="c189" r="6" cx="272.80" cy="124.60"/>
<circle id="c190" r="6" cx="281.17" cy="66.360"/>
<circle id="c191" r="6" cx="288.97" cy="22.900"/>
<circle id="c192" r="6" cx="289.29" cy="52.690"/>
<circle id="c193" r="6" cx="296.98" cy="9.2500"/>
<circle id="c194" r="6" cx="280.90" cy="110.93"/>
<circle id="c195" r="6" cx="297.31" cy="39.180"/>
</g><g id="M" fill="#019cdb">
<circle id="c196" r="6" cx="289.72" cy="82.650"/>
<circle id="c197" r="6" cx="288.88" cy="97.480"/>
<circle id="c198" r="6" cx="305.25" cy="25.780"/>
<circle id="c199" r="6" cx="281.36" cy="140.99"/>
<circle id="c200" r="6" cx="297.73" cy="69.300"/>
<circle id="c201" r="6" cx="313.12" cy="12.470"/>
<circle id="c202" r="6" cx="305.66" cy="56.060"/>
<circle id="c203" r="6" cx="289.32" cy="127.79"/>
<circle id="c204" r="6" cx="313.50" cy="42.900"/>
<circle id="c205" r="6" cx="321.28" cy="29.810"/>
<circle id="c206" r="6" cx="297.14" cy="114.68"/>
<circle id="c207" r="6" cx="306.19" cy="86.680"/>
<circle id="c208" r="6" cx="329.01" cy="16.770"/>
<circle id="c209" r="6" cx="304.88" cy="101.67"/>
<circle id="c210" r="6" cx="313.97" cy="73.700"/>
<circle id="c211" r="6" cx="321.70" cy="60.740"/>
<circle id="c212" r="6" cx="329.37" cy="47.830"/>
<circle id="c213" r="6" cx="336.99" cy="34.940"/>
<circle id="c214" r="6" cx="297.69" cy="145.86"/>
<circle id="c215" r="6" cx="344.58" cy="22.090"/>
<circle id="c216" r="6" cx="305.31" cy="133.04"/>
<circle id="c217" r="6" cx="322.20" cy="92.280"/>
<circle id="c218" r="6" cx="329.77" cy="79.490"/>
<circle id="c219" r="6" cx="312.85" cy="120.24"/>
<circle id="c220" r="6" cx="337.30" cy="66.710"/>
<circle id="c221" r="6" cx="320.37" cy="107.46"/>
<circle id="c222" r="6" cx="344.82" cy="53.940"/>
<circle id="c223" r="6" cx="352.31" cy="41.180"/>
<circle id="c224" r="6" cx="359.78" cy="28.410"/>
<circle id="c225" r="6" cx="337.58" cy="99.390"/>
<circle id="c226" r="6" cx="344.98" cy="86.650"/>
<circle id="c227" r="6" cx="352.38" cy="73.930"/>
<circle id="c228" r="6" cx="359.77" cy="61.190"/>
<circle id="c229" r="6" cx="367.15" cy="48.470"/>
<circle id="c230" r="6" cx="374.53" cy="35.740"/>
<circle id="c231" r="6" cx="313.13" cy="153.02"/>
<circle id="c232" r="6" cx="320.49" cy="140.29"/>
<circle id="c233" r="6" cx="327.84" cy="127.55"/>
<circle id="c234" r="6" cx="335.20" cy="114.82"/>
<circle id="c235" r="6" cx="388.76" cy="44.020"/>
<circle id="c236" r="6" cx="381.45" cy="56.780"/>
<circle id="c237" r="6" cx="374.12" cy="69.560"/>
<circle id="c238" r="6" cx="366.81" cy="82.340"/>
<circle id="c239" r="6" cx="359.52" cy="95.120"/>
<circle id="c240" r="6" cx="352.23" cy="107.93"/>
<circle id="c241" r="6" cx="349.20" cy="123.64"/>
<circle id="c242" r="6" cx="341.91" cy="136.51"/>
<circle id="c243" r="6" cx="402.41" cy="53.210"/>
<circle id="c244" r="6" cx="395.11" cy="66.080"/>
<circle id="c245" r="6" cx="334.64" cy="149.41"/>
<circle id="c246" r="6" cx="387.82" cy="78.970"/>
<circle id="c247" r="6" cx="380.52" cy="91.890"/>
<circle id="c248" r="6" cx="327.39" cy="162.35"/>
<circle id="c249" r="6" cx="373.26" cy="104.84"/>
<circle id="c250" r="6" cx="365.99" cy="117.84"/>
<circle id="c251" r="6" cx="415.44" cy="63.270"/>
<circle id="c252" r="6" cx="408.10" cy="76.310"/>
<circle id="c253" r="6" cx="400.76" cy="89.390"/>
<circle id="c254" r="6" cx="362.22" cy="133.85"/>
<circle id="c255" r="6" cx="393.42" cy="102.54"/>
<circle id="c256" r="6" cx="354.87" cy="146.98"/>
<circle id="c257" r="6" cx="386.07" cy="115.73"/>
<circle id="c258" r="6" cx="427.77" cy="74.180"/>
<circle id="c259" r="6" cx="347.51" cy="160.23"/>
<circle id="c260" r="6" cx="378.73" cy="129.04"/>
<circle id="c261" r="6" cx="420.33" cy="87.430"/>
<circle id="c262" r="6" cx="412.88" cy="100.76"/>
<circle id="c263" r="6" cx="340.14" cy="173.63"/>
<circle id="c264" r="6" cx="405.40" cy="114.17"/>
<circle id="c265" r="6" cx="374.12" cy="145.32"/>
</g><g id="KD" fill="#2d338e">
<circle id="c266" r="6" cx="439.35" cy="85.870"/>
<circle id="c267" r="6" cx="397.89" cy="127.70"/>
<circle id="c268" r="6" cx="431.76" cy="99.370"/>
<circle id="c269" r="6" cx="366.56" cy="158.88"/>
<circle id="c270" r="6" cx="390.33" cy="141.39"/>
<circle id="c271" r="6" cx="424.11" cy="112.99"/>
<circle id="c272" r="6" cx="450.15" cy="98.300"/>
<circle id="c273" r="6" cx="358.91" cy="172.61"/>
<circle id="c274" r="6" cx="416.40" cy="126.74"/>
<circle id="c275" r="6" cx="442.32" cy="112.09"/>
<circle id="c276" r="6" cx="384.80" cy="157.97"/>
<circle id="c277" r="6" cx="408.60" cy="140.67"/>
<circle id="c278" r="6" cx="351.13" cy="186.63"/>
<circle id="c279" r="6" cx="434.39" cy="126.05"/>
<circle id="c280" r="6" cx="460.09" cy="111.40"/>
<circle id="c281" r="6" cx="400.70" cy="154.80"/>
<circle id="c282" r="6" cx="376.83" cy="172.00"/>
<circle id="c283" r="6" cx="426.34" cy="140.18"/>
<circle id="c284" r="6" cx="451.95" cy="125.54"/>
<circle id="c285" r="6" cx="418.15" cy="154.52"/>
<circle id="c286" r="6" cx="443.66" cy="139.85"/>
<circle id="c287" r="6" cx="368.65" cy="186.33"/>
</g><g id="SD" fill="#fedf09">
<circle id="c288" r="6" cx="469.17" cy="125.15"/>
<circle id="c289" r="6" cx="394.13" cy="171.63"/>
<circle id="c290" r="6" cx="460.62" cy="139.61"/>
<circle id="c291" r="6" cx="435.17" cy="154.36"/>
<circle id="c292" r="6" cx="409.74" cy="169.14"/>
<circle id="c293" r="6" cx="385.55" cy="186.20"/>
<circle id="c294" r="6" cx="360.13" cy="201.09"/>
<circle id="c295" r="6" cx="477.30" cy="139.45"/>
<circle id="c296" r="6" cx="451.87" cy="154.29"/>
<circle id="c297" r="6" cx="426.43" cy="169.17"/>
<circle id="c298" r="6" cx="468.28" cy="154.26"/>
<circle id="c299" r="6" cx="402.01" cy="186.17"/>
<circle id="c300" r="6" cx="442.82" cy="169.23"/>
<circle id="c301" r="6" cx="376.56" cy="201.19"/>
<circle id="c302" r="6" cx="484.48" cy="154.26"/>
<circle id="c303" r="6" cx="417.34" cy="184.29"/>
<circle id="c304" r="6" cx="458.96" cy="169.30"/>
<circle id="c305" r="6" cx="433.39" cy="184.48"/>
<circle id="c306" r="6" cx="392.60" cy="201.31"/>
<circle id="c307" r="6" cx="474.89" cy="169.41"/>
<circle id="c308" r="6" cx="449.23" cy="184.66"/>
<circle id="c309" r="6" cx="490.67" cy="169.51"/>
<circle id="c310" r="6" cx="408.37" cy="201.44"/>
<circle id="c311" r="6" cx="366.96" cy="216.69"/>
<circle id="c312" r="6" cx="464.90" cy="184.82"/>
<circle id="c313" r="6" cx="423.48" cy="200.10"/>
<circle id="c314" r="6" cx="480.42" cy="184.98"/>
<circle id="c315" r="6" cx="382.52" cy="216.91"/>
<circle id="c316" r="6" cx="438.98" cy="200.34"/>
<circle id="c317" r="6" cx="495.85" cy="185.13"/>
<circle id="c318" r="6" cx="454.37" cy="200.56"/>
<circle id="c319" r="6" cx="397.89" cy="217.12"/>
<circle id="c320" r="6" cx="469.65" cy="200.75"/>
<circle id="c321" r="6" cx="413.13" cy="217.28"/>
<circle id="c322" r="6" cx="484.85" cy="200.91"/>
<circle id="c323" r="6" cx="428.05" cy="216.42"/>
<circle id="c324" r="6" cx="499.98" cy="201.07"/>
<circle id="c325" r="6" cx="443.16" cy="216.63"/>
<circle id="c326" r="6" cx="371.46" cy="233.10"/>
<circle id="c327" r="6" cx="458.21" cy="216.82"/>
<circle id="c328" r="6" cx="473.20" cy="216.97"/>
<circle id="c329" r="6" cx="386.45" cy="233.28"/>
<circle id="c330" r="6" cx="488.14" cy="217.12"/>
<circle id="c331" r="6" cx="503.07" cy="217.23"/>
<circle id="c332" r="6" cx="401.38" cy="233.41"/>
<circle id="c333" r="6" cx="416.25" cy="233.53"/>
<circle id="c334" r="6" cx="431.05" cy="233.10"/>
<circle id="c335" r="6" cx="445.88" cy="233.23"/>
<circle id="c336" r="6" cx="460.71" cy="233.34"/>
<circle id="c337" r="6" cx="475.51" cy="233.43"/>
<circle id="c338" r="6" cx="490.29" cy="233.50"/>
<circle id="c339" r="6" cx="505.07" cy="233.57"/>
<circle id="c340" r="6" cx="373.53" cy="250.00"/>
<circle id="c341" r="6" cx="388.26" cy="250.00"/>
<circle id="c342" r="6" cx="402.98" cy="250.00"/>
<circle id="c343" r="6" cx="417.71" cy="250.00"/>
<circle id="c344" r="6" cx="432.42" cy="250.00"/>
<circle id="c345" r="6" cx="447.14" cy="250.00"/>
<circle id="c346" r="6" cx="461.85" cy="250.00"/>
<circle id="c347" r="6" cx="476.58" cy="250.00"/>
<circle id="c348" r="6" cx="491.29" cy="250.00"/>
<circle id="c349" r="6" cx="506.00" cy="250.00"/>
</g>
</g>
</svg>