<?xml version="1.0"?>
<svg xmlns="http://www.w3.org/2000/svg" viewBox="72.5 72.5 365 437.5" width="365" height="437.5" role="img" aria-label="Partidata">
  <title>Partidata</title>
  <path fill="#082354" d="M72.5 255A182.5 182.5 0 1 1 198.576073 428.558608 25 25 0 0 1 214.034683 381.008305 132.5 132.5 0 1 0 122.5 255 25 25 0 0 1 72.5 255Z"/>
  <path fill="#082354" d="M97.5 314A25 25 0 0 1 122.5 339V485A25 25 0 0 1 97.5 510 25 25 0 0 1 72.5 485V339A25 25 0 0 1 97.5 314Z"/>
  <path fill="#FFBE1B" d="M309 258A54 54 0 1 1 201 258 54 54 0 1 1 309 258Z"/>
</svg>
